#!OML:ASF X:\2005_08_12_Meinard\c3d\meinard.ASF
:FULLY-SPECIFIED
:DEGREES
1864
root 3.38818 15.81 -1.40371 -1.68277 -71.0909 -22.1079
lowerback 43.9894 0.820008 -9.11898
upperback 10.0106 -4.1198 2.08903
thorax -8.65883 -2.57039 8.78574
lowerneck -16.4124 -8.28173 -6.67408
upperneck 3.92146 -11.2605 14.3699
head 5.09043 -4.91586 4.46435
rclavicle 3.02153e-014 -2.70347e-014
rhumerus -31.127 -1.13809 -450.993
rradius 126.934
rwrist 379.979
rhand -4.54181 -13.1292
rfingers 7.12502
rthumb 21.2336 -41.9862
lclavicle 3.02153e-014 -2.70347e-014
lhumerus -22.7871 4.37471 92.5891
lradius 61.3074
lwrist -195.269
lhand -12.2355 6.52297
lfingers 7.12502
lthumb 13.8301 36.0432
rfemur -185.514 -179.527 201.104
rtibia 51.9659
rfoot 160.525 169.209
rtoes 10.1374
lfemur -172.798 174.309 -181.932
ltibia 52.5131
lfoot -25.5952 26.2628
ltoes 29.943
1865
root 3.38907 15.754 -1.40671 -1.29992 -71.3945 -22.7142
lowerback 44.3881 0.431313 -9.20685
upperback 10.1193 -4.69361 2.26892
thorax -8.5306 -2.8788 9.27182
lowerneck -17.4841 -7.6616 -6.51612
upperneck 4.36222 -10.3413 13.4461
head 5.22951 -4.45483 4.23038
rclavicle -1.66979e-014 7.95139e-015
rhumerus -31.4179 1.78809 -452.628
rradius 127.335
rwrist 380.275
rhand -4.52788 -12.3833
rfingers 7.12502
rthumb 21.247 -41.2388
lclavicle -1.66979e-014 7.95139e-015
lhumerus -23.8299 4.98787 92.1714
lradius 63.1118
lwrist -194.348
lhand -12.4523 6.31918
lfingers 7.12502
lthumb 13.6211 35.8535
rfemur -185.582 -180.063 201.5
rtibia 52.4488
rfoot 160.09 168.58
rtoes 9.6982
lfemur -172.811 173.924 -181.449
ltibia 53.222
lfoot -26.0611 26.0344
ltoes 30.0002
1866
root 3.38917 15.7058 -1.41041 -1.01042 -71.644 -23.182
lowerback 44.811 0.137785 -9.55032
upperback 10.201 -5.25506 2.56236
thorax -8.40435 -3.18613 10.0118
lowerneck -18.4871 -6.84628 -5.77827
upperneck 4.71941 -9.23007 12.0515
head 5.26844 -3.93221 3.78273
rclavicle 2.34566e-014 -1.11319e-014
rhumerus -31.7052 4.96352 -454.075
rradius 127.653
rwrist 380.436
rhand -4.59828 -11.4058
rfingers 7.12502
rthumb 21.1793 -40.2689
lclavicle 2.34566e-014 -1.11319e-014
lhumerus -24.8317 5.86187 91.8555
lradius 64.7438
lwrist -193.645
lhand -12.7346 5.97692
lfingers 7.12502
lthumb 13.349 35.5293
rfemur -185.665 -180.453 201.832
rtibia 52.8989
rfoot 159.735 167.973
rtoes 9.45787
lfemur -172.845 173.657 -181.069
ltibia 53.8698
lfoot -26.538 25.7936
ltoes 29.8378
1867
root 3.38871 15.6612 -1.41372 -0.784471 -71.8224 -23.53
lowerback 45.2755 -0.0634391 -9.99379
upperback 10.2324 -5.74208 2.94505
thorax -8.33257 -3.45582 10.8795
lowerneck -19.2576 -5.95385 -4.78481
upperneck 4.881 -8.06063 10.4722
head 5.21003 -3.41135 3.24765
rclavicle 4.81059e-014 1.35174e-014
rhumerus -32.0029 8.14 -455.287
rradius 127.981
rwrist 380.454
rhand -4.63787 -10.2538
rfingers 7.12502
rthumb 21.1413 -39.1211
lclavicle 4.81059e-014 1.35174e-014
lhumerus -25.755 6.82122 91.6782
lradius 66.0576
lwrist -193.125
lhand -13.0559 5.65077
lfingers 7.12502
lthumb 13.0394 35.2232
rfemur -185.793 -180.626 202.086
rtibia 53.3248
rfoot 159.545 167.421
rtoes 9.57291
lfemur -172.937 173.482 -180.786
ltibia 54.4832
lfoot -27.0456 25.5709
ltoes 29.5051
1868
root 3.38622 15.6218 -1.41735 -0.780002 -71.9476 -23.6478
lowerback 45.7457 -0.277205 -10.2568
upperback 10.2421 -6.17001 3.25592
thorax -8.30964 -3.68886 11.5564
lowerneck -19.7874 -5.18762 -4.17483
upperneck 4.91594 -7.02933 9.29424
head 5.14701 -2.95643 2.88697
rclavicle 1.11319e-013 -8.0309e-014
rhumerus -32.3158 11.0535 -456.334
rradius 128.412
rwrist 380.428
rhand -4.58703 -8.94578
rfingers 7.12502
rthumb 21.1902 -37.8076
lclavicle 1.11319e-013 -8.0309e-014
lhumerus -26.5273 7.56747 91.571
lradius 67.028
lwrist -192.76
lhand -13.3366 5.24867
lfingers 7.12502
lthumb 12.7687 34.8382
rfemur -185.874 -180.548 202.195
rtibia 53.6945
rfoot 159.442 167.03
rtoes 9.99428
lfemur -173.002 173.386 -180.629
ltibia 55.0303
lfoot -27.5024 25.4326
ltoes 29.2447
1869
root 3.38229 15.5895 -1.42141 -0.842151 -71.982 -23.6198
lowerback 46.1318 -0.560337 -10.156
upperback 10.2165 -6.51018 3.42049
thorax -8.36495 -3.85883 11.8499
lowerneck -20.1355 -4.63518 -3.89993
upperneck 4.85208 -6.26614 8.60392
head 5.09078 -2.61747 2.70524
rclavicle -1.74931e-014 5.00937e-014
rhumerus -32.4706 13.481 -457.221
rradius 128.899
rwrist 380.418
rhand -4.32585 -7.63704
rfingers 7.12502
rthumb 21.441 -36.4706
lclavicle -1.74931e-014 5.00937e-014
lhumerus -27.2675 7.72534 91.4767
lradius 67.7933
lwrist -192.507
lhand -13.4824 4.82122
lfingers 7.12502
lthumb 12.6282 34.4195
rfemur -185.998 -180.174 202.173
rtibia 53.9942
rfoot 159.397 166.844
rtoes 10.5972
lfemur -173.166 173.429 -180.598
ltibia 55.5326
lfoot -27.8552 25.3741
ltoes 29.3016
1870
root 3.3751 15.5658 -1.42648 -1.1112 -71.9372 -23.3319
lowerback 46.4842 -0.836343 -9.89529
upperback 10.1457 -6.75669 3.52998
thorax -8.50272 -3.96663 11.9662
lowerneck -20.4264 -4.27531 -3.82091
upperneck 4.7906 -5.74546 8.16893
head 5.06353 -2.38606 2.60889
rclavicle -8.90555e-014 2.62396e-014
rhumerus -32.4765 15.5105 -457.789
rradius 129.492
rwrist 380.458
rhand -3.68339 -6.25237
rfingers 7.12502
rthumb 22.058 -35.0144
lclavicle -8.90555e-014 2.62396e-014
lhumerus -28.036 7.48511 91.441
lradius 68.4862
lwrist -192.372
lhand -13.5566 4.41963
lfingers 7.12502
lthumb 12.5567 34.0223
rfemur -186.086 -179.527 201.965
rtibia 54.1913
rfoot 159.351 166.943
rtoes 11.1823
lfemur -173.375 173.627 -180.728
ltibia 55.9581
lfoot -27.8964 25.3657
ltoes 29.4173
1871
root 3.36447 15.5519 -1.43218 -1.61999 -71.7774 -22.744
lowerback 46.801 -1.08983 -9.64053
upperback 10.0131 -6.9622 3.61787
thorax -8.71101 -4.03824 12.0499
lowerneck -20.5991 -4.00169 -3.65296
upperneck 4.74662 -5.3712 7.76942
head 5.03409 -2.22434 2.49454
rclavicle 2.78299e-015 -3.73715e-014
rhumerus -32.5644 17.2714 -458.103
rradius 130.32
rwrist 380.674
rhand -2.73267 -4.81546
rfingers 7.12502
rthumb 22.9705 -33.4669
lclavicle 2.78299e-015 -3.73715e-014
lhumerus -28.8023 7.18984 91.4581
lradius 69.0726
lwrist -192.46
lhand -13.5306 4.15379
lfingers 7.12502
lthumb 12.5817 33.7549
rfemur -186.134 -178.619 201.556
rtibia 54.2627
rfoot 159.287 167.351
rtoes 11.6876
lfemur -173.657 174.078 -181.077
ltibia 56.3162
lfoot -27.8899 25.4269
ltoes 29.5312
1872
root 3.34789 15.551 -1.43997 -2.28893 -71.4612 -21.9335
lowerback 47.0754 -1.29013 -9.43221
upperback 9.79587 -7.09889 3.73617
thorax -9.01222 -4.05797 12.1715
lowerneck -20.5683 -3.84562 -3.40654
upperneck 4.7126 -5.18276 7.41609
head 4.98902 -2.15201 2.36399
rclavicle 1.11319e-014 -2.8625e-014
rhumerus -32.6615 18.6163 -458.068
rradius 131.405
rwrist 381.064
rhand -1.23241 -3.32749
rfingers 7.12502
rthumb 24.4094 -31.7926
lclavicle 1.11319e-014 -2.8625e-014
lhumerus -29.5836 7.03338 91.5406
lradius 69.6043
lwrist -192.835
lhand -13.5928 4.16832
lfingers 7.12502
lthumb 12.5217 33.7731
rfemur -186.111 -177.512 200.999
rtibia 54.1896
rfoot 159.167 168
rtoes 11.8114
lfemur -174.032 174.841 -181.615
ltibia 56.6014
lfoot -27.7895 25.4858
ltoes 29.5648
1873
root 3.32584 15.5643 -1.44988 -2.88464 -70.9338 -21.0367
lowerback 47.2273 -1.45789 -9.28183
upperback 9.45337 -7.1792 3.9152
thorax -9.42658 -4.02415 12.3765
lowerneck -20.1234 -3.79685 -3.06913
upperneck 4.58294 -5.16453 7.10909
head 4.86027 -2.16683 2.22008
rclavicle 6.57977e-014 -7.39479e-014
rhumerus -32.8209 19.5328 -457.681
rradius 132.543
rwrist 381.571
rhand 0.561248 -1.63517
rfingers 7.12502
rthumb 26.1278 -29.8576
lclavicle 6.57977e-014 -7.39479e-014
lhumerus -30.3847 6.99082 91.6654
lradius 70.0806
lwrist -193.368
lhand -13.7786 4.36042
lfingers 7.12502
lthumb 12.3426 33.9761
rfemur -186.108 -176.236 200.375
rtibia 53.9589
rfoot 159.043 168.775
rtoes 11.685
lfemur -174.645 175.939 -182.299
ltibia 56.8338
lfoot -27.5845 25.4889
ltoes 29.6718
1874
root 3.30015 15.592 -1.46129 -3.25664 -70.2557 -20.2072
lowerback 47.1546 -1.56965 -9.13077
upperback 9.1065 -7.15293 4.12147
thorax -9.811 -3.93721 12.5575
lowerneck -19.4391 -3.89467 -2.51014
upperneck 4.34331 -5.39111 6.80636
head 4.6669 -2.30387 2.02152
rclavicle -1.53064e-014 -2.38542e-015
rhumerus -32.8597 19.9616 -456.793
rradius 133.413
rwrist 382.026
rhand 2.25092 0.475154
rfingers 7.12502
rthumb 27.7445 -27.4976
lclavicle -1.53064e-014 -2.38542e-015
lhumerus -30.8425 6.86877 91.7641
lradius 70.2829
lwrist -193.937
lhand -14.0533 4.77822
lfingers 7.12502
lthumb 12.0778 34.4097
rfemur -186.17 -174.87 199.771
rtibia 53.598
rfoot 158.966 169.645
rtoes 11.406
lfemur -175.464 177.297 -183.021
ltibia 57.0242
lfoot -27.3206 25.2987
ltoes 29.5183
1875
root 3.27329 15.6308 -1.47403 -3.41478 -69.4299 -19.4398
lowerback 46.763 -1.64704 -8.90926
upperback 8.85722 -7.01734 4.33639
thorax -10.0323 -3.81847 12.6384
lowerneck -18.608 -4.22142 -2.05952
upperneck 3.90307 -5.91026 6.7702
head 4.4119 -2.57908 1.9015
rclavicle -7.33515e-014 5.64548e-014
rhumerus -32.4871 19.9337 -455.283
rradius 134.023
rwrist 382.268
rhand 3.66489 2.77467
rfingers 7.12502
rthumb 29.0957 -24.9726
lclavicle -7.33515e-014 5.64548e-014
lhumerus -30.7661 6.56894 91.8518
lradius 70.1661
lwrist -194.333
lhand -14.4906 5.32043
lfingers 7.12502
lthumb 11.656 34.9762
rfemur -186.306 -173.42 199.207
rtibia 53.1246
rfoot 158.938 170.504
rtoes 11.0587
lfemur -176.481 178.933 -183.758
ltibia 57.1615
lfoot -26.9871 24.8982
ltoes 29.1602
1876
root 3.26224 15.6755 -1.48725 -3.51041 -68.5443 -18.6548
lowerback 46.3041 -1.65786 -8.59515
upperback 8.64744 -6.75448 4.52944
thorax -10.2286 -3.64603 12.5838
lowerneck -17.6463 -4.75102 -1.65686
upperneck 3.28077 -6.68961 6.9233
head 4.09806 -2.98312 1.83301
rclavicle 3.3197e-014 -4.09496e-014
rhumerus -31.4093 19.3898 -453.083
rradius 134.434
rwrist 381.988
rhand 4.97914 5.03045
rfingers 7.12502
rthumb 30.3501 -22.4929
lclavicle 3.3197e-014 -4.09496e-014
lhumerus -30.1286 6.09444 91.9193
lradius 69.6694
lwrist -194.566
lhand -15.0524 5.98901
lfingers 7.12502
lthumb 11.1142 35.6747
rfemur -186.564 -171.99 198.652
rtibia 52.6118
rfoot 159.013 171.369
rtoes 10.64
lfemur -177.662 180.731 -184.535
ltibia 57.2356
lfoot -26.3655 24.3533
ltoes 28.7933
1877
root 3.26007 15.7278 -1.50014 -4.16769 -67.6877 -17.5353
lowerback 46.1553 -1.47486 -8.08508
upperback 8.42072 -6.20922 4.57878
thorax -10.6168 -3.32938 12.159
lowerneck -16.3396 -5.65849 -1.57563
upperneck 2.42437 -7.91826 7.52812
head 3.70949 -3.60876 1.93228
rclavicle -5.96354e-015 -5.24792e-014
rhumerus -29.3088 18.2505 -450.006
rradius 134.422
rwrist 380.918
rhand 5.88977 6.58056
rfingers 7.12502
rthumb 31.2183 -20.7791
lclavicle -5.96354e-015 -5.24792e-014
lhumerus -29.202 4.91524 92.0075
lradius 69.0162
lwrist -194.538
lhand -15.7856 6.62919
lfingers 7.12502
lthumb 10.407 36.3516
rfemur -186.564 -170.703 197.951
rtibia 52.0963
rfoot 159.18 172.153
rtoes 10.4233
lfemur -178.573 182.637 -185.468
ltibia 57.2064
lfoot -25.1333 23.6685
ltoes 28.8891
